<svg width="48" height="48" viewBox="0 0 48 48" fill="none" xmlns="http://www.w3.org/2000/svg">
<circle cx="24" cy="24" r="23.5" stroke="#E6E7E7"/>
<path d="M35.7905 30.8601C35.3469 31.8849 34.8218 32.8282 34.2134 33.6955C33.3842 34.8779 32.7052 35.6963 32.1819 36.1508C31.3707 36.8967 30.5016 37.2788 29.571 37.3005C28.9028 37.3005 28.0971 37.1104 27.1592 36.7247C26.2182 36.3409 25.3534 36.1508 24.5627 36.1508C23.7335 36.1508 22.8441 36.3409 21.8928 36.7247C20.94 37.1104 20.1725 37.3114 19.5856 37.3313C18.6932 37.3693 17.8036 36.9764 16.9157 36.1508C16.3489 35.6565 15.6401 34.8091 14.7909 33.6086C13.8798 32.3267 13.1307 30.8401 12.5439 29.1454C11.9154 27.3148 11.6003 25.5422 11.6003 23.8261C11.6003 21.8603 12.0251 20.1648 12.8759 18.744C13.5446 17.6027 14.4342 16.7024 15.5475 16.0416C16.6609 15.3807 17.8639 15.0439 19.1594 15.0224C19.8683 15.0224 20.7979 15.2416 21.953 15.6726C23.105 16.1049 23.8446 16.3242 24.1689 16.3242C24.4114 16.3242 25.233 16.0678 26.6259 15.5567C27.9432 15.0826 29.0549 14.8864 29.9657 14.9637C32.4336 15.1629 34.2877 16.1357 35.5207 17.8884C33.3136 19.2258 32.2217 21.0989 32.2435 23.5018C32.2634 25.3734 32.9424 26.931 34.2768 28.1676C34.8816 28.7416 35.5569 29.1852 36.3084 29.5003C36.1454 29.9728 35.9734 30.4255 35.7905 30.8601ZM30.1304 8.58732C30.1304 10.0543 29.5945 11.4241 28.5262 12.6919C27.237 14.1991 25.6777 15.07 23.9868 14.9325C23.9652 14.7565 23.9527 14.5713 23.9527 14.3767C23.9527 12.9684 24.5658 11.4612 25.6545 10.2289C26.1981 9.6049 26.8894 9.0861 27.7277 8.67224C28.5642 8.26456 29.3555 8.0391 30.0997 8.00049C30.1214 8.1966 30.1304 8.39273 30.1304 8.5873V8.58732Z" fill="#3C3D3D"/>
</svg>
