<svg width="24" height="24" viewBox="0 0 24 24" fill="none" xmlns="http://www.w3.org/2000/svg">
<path d="M2.625 12C2.625 12.2984 2.74353 12.5845 2.95451 12.7955C3.16548 13.0065 3.45163 13.125 3.75 13.125H17.5312L12.7031 17.9531C12.5982 18.0576 12.515 18.1818 12.4582 18.3186C12.4015 18.4553 12.3722 18.6019 12.3722 18.75C12.3722 18.8981 12.4015 19.0447 12.4582 19.1814C12.515 19.3182 12.5982 19.4424 12.7031 19.5469C12.9154 19.7564 13.2017 19.8739 13.5 19.8739C13.7983 19.8739 14.0846 19.7564 14.2969 19.5469L21.0469 12.7969C21.1518 12.6924 21.235 12.5682 21.2918 12.4314C21.3485 12.2947 21.3778 12.1481 21.3778 12C21.3778 11.8519 21.3485 11.7053 21.2918 11.5686C21.235 11.4318 21.1518 11.3076 21.0469 11.2031L14.2969 4.45312C14.0855 4.24178 13.7989 4.12305 13.5 4.12305C13.352 4.12305 13.2055 4.1522 13.0687 4.20883C12.932 4.26547 12.8078 4.34848 12.7031 4.45312C12.5985 4.55777 12.5155 4.682 12.4588 4.81873C12.4022 4.95546 12.373 5.10201 12.373 5.25C12.373 5.39799 12.4022 5.54454 12.4588 5.68126C12.5155 5.81799 12.5985 5.94223 12.7031 6.04687L17.5312 10.875H3.75C3.45163 10.875 3.16548 10.9935 2.95451 11.2045C2.74353 11.4155 2.625 11.7016 2.625 12Z" fill="#01A3E0"/>
</svg>
