<svg width="32" height="32" viewBox="0 0 32 32" fill="none" xmlns="http://www.w3.org/2000/svg">
<path d="M8.06058 27.4026C7.40071 27.6854 6.66666 27.2014 6.66666 26.4835V6.66667C6.66666 5.93333 6.92799 5.30533 7.45066 4.78267C7.97243 4.26089 8.59999 4 9.33332 4H22.6667C23.4 4 24.028 4.26089 24.5507 4.78267C25.0724 5.30533 25.3333 5.93333 25.3333 6.66667V26.4835C25.3333 27.2014 24.5993 27.6854 23.9394 27.4026L16 24L8.06058 27.4026Z" fill="#0072AA"/>
<path d="M8.06058 27.4026C7.40071 27.6854 6.66666 27.2014 6.66666 26.4835V6.66667C6.66666 5.93333 6.92799 5.30533 7.45066 4.78267C7.97243 4.26089 8.59999 4 9.33332 4H22.6667C23.4 4 24.028 4.26089 24.5507 4.78267C25.0724 5.30533 25.3333 5.93333 25.3333 6.66667V26.4835C25.3333 27.2014 24.5993 27.6854 23.9394 27.4026L16 24L8.06058 27.4026Z" stroke="#AFB0B1"/>
</svg>
