<svg width="48" height="48" viewBox="0 0 48 48" fill="none" xmlns="http://www.w3.org/2000/svg">
<circle cx="24" cy="24" r="23.5" stroke="#E6E7E7"/>
<path d="M14.8137 28.1798C14.8137 30.0123 13.3192 31.5091 11.4865 31.5091C9.65397 31.5091 8.15747 30.0123 8.15747 28.1798C8.15747 26.3473 9.65422 24.8506 11.4867 24.8506H14.814L14.8137 28.1798ZM16.491 28.1798C16.491 26.3473 17.9877 24.8506 19.8202 24.8506C21.6527 24.8506 23.1495 26.3471 23.1495 28.1798V36.5136C23.1495 38.3461 21.653 39.8428 19.8202 39.8428C17.9877 39.8428 16.491 38.3461 16.491 36.5136V28.1798Z" fill="#DE1C59"/>
<path d="M19.8202 14.814C17.9877 14.814 16.491 13.3195 16.491 11.4867C16.491 9.65421 17.9877 8.15771 19.8202 8.15771C21.6527 8.15771 23.1495 9.65446 23.1495 11.487V14.8142L19.8202 14.814ZM19.8202 16.4912C21.6527 16.4912 23.1495 17.988 23.1495 19.8205C23.1495 21.653 21.653 23.1497 19.8202 23.1497H11.4865C9.65397 23.1497 8.15747 21.6532 8.15747 19.8205C8.15747 17.988 9.65422 16.4912 11.4867 16.4912H19.8202Z" fill="#35C5F0"/>
<path d="M33.1863 19.8205C33.1863 17.988 34.6808 16.4912 36.5136 16.4912C38.3461 16.4912 39.8428 17.988 39.8428 19.8205C39.8428 21.653 38.3461 23.1497 36.5136 23.1497H33.1863V19.8205ZM31.5091 19.8205C31.5091 21.653 30.0123 23.1497 28.1798 23.1497C26.3473 23.1497 24.8506 21.6532 24.8506 19.8205V11.4867C24.8506 9.65421 26.3471 8.15771 28.1798 8.15771C30.0123 8.15771 31.5091 9.65446 31.5091 11.487V19.8205Z" fill="#2EB57D"/>
<path d="M28.1798 33.1863C30.0123 33.1863 31.5091 34.6808 31.5091 36.5136C31.5091 38.3461 30.0123 39.8428 28.1798 39.8428C26.3473 39.8428 24.8506 38.3461 24.8506 36.5136V33.1863H28.1798ZM28.1798 31.5091C26.3473 31.5091 24.8506 30.0123 24.8506 28.1798C24.8506 26.3473 26.3471 24.8506 28.1798 24.8506H36.5136C38.3461 24.8506 39.8428 26.3471 39.8428 28.1798C39.8428 30.0123 38.3461 31.5091 36.5136 31.5091H28.1798Z" fill="#EBB02E"/>
</svg>
