<svg width="72" height="72" viewBox="0 0 72 72" fill="none" xmlns="http://www.w3.org/2000/svg">
<rect x="19.0635" width="56" height="56" rx="12" transform="rotate(19.9024 19.0635 0)" fill="white"/>
<path d="M25.8345 36.7816C25.2271 38.5105 23.321 39.4273 21.5918 38.8198C19.8629 38.2125 18.9471 36.3043 19.5545 34.5754C20.1619 32.8465 22.0702 31.9304 23.7991 32.5378L26.9382 33.6407L25.8345 36.7816ZM27.4169 37.3376C28.0243 35.6086 29.9326 34.6926 31.6615 35.3C33.3904 35.9074 34.3065 37.8154 33.699 39.5445L30.9368 47.4072C30.3294 49.1361 28.4214 50.0522 26.6922 49.4448C24.9633 48.8374 24.0473 46.9291 24.6547 45.2002L27.4169 37.3376Z" fill="#DE1C59"/>
<path d="M34.9882 25.8305C33.2593 25.2231 32.3425 23.317 32.95 21.5878C33.5574 19.8589 35.4656 18.9431 37.1945 19.5505C38.9234 20.1579 39.8394 22.0661 39.232 23.795L38.1292 26.9342L34.9882 25.8305ZM34.4323 27.4129C36.1612 28.0203 37.0772 29.9285 36.4699 31.6574C35.8625 33.3864 33.9545 34.3025 32.2253 33.695L24.3627 30.9327C22.6337 30.3254 21.7179 28.4174 22.3253 26.6883C22.9327 24.9594 24.841 24.0433 26.5699 24.6507L34.4323 27.4129Z" fill="#35C5F0"/>
<path d="M45.9392 34.9844C46.5466 33.2555 48.4528 32.3387 50.1819 32.9462C51.9108 33.5536 52.8268 35.4618 52.2195 37.1907C51.6121 38.9196 49.7038 39.8357 47.9749 39.2283L44.8357 38.1255L45.9392 34.9844ZM44.3568 34.4285C43.7494 36.1574 41.8412 37.0734 40.1123 36.466C38.3833 35.8586 37.4672 33.9506 38.0747 32.2215L40.837 24.3588C41.4443 22.6299 43.3523 21.714 45.0814 22.3215C46.8103 22.9289 47.7264 24.8371 47.119 26.5661L44.3568 34.4285Z" fill="#2EB57D"/>
<path d="M36.7855 45.9353C38.5144 46.5427 39.4312 48.4488 38.8237 50.178C38.2163 51.9069 36.3081 52.8229 34.5792 52.2155C32.8503 51.6081 31.9342 49.6999 32.5416 47.971L33.6445 44.8318L36.7855 45.9353ZM37.3414 44.3529C35.6125 43.7455 34.6965 41.8372 35.3039 40.1083C35.9113 38.3794 37.8193 37.4633 39.5484 38.0708L47.4111 40.833C49.14 41.4404 50.0561 43.3484 49.4486 45.0776C48.8412 46.8065 46.933 47.7225 45.2041 47.1151L37.3414 44.3529Z" fill="#EBB02E"/>
</svg>
