<svg width="65" height="65" viewBox="0 0 65 65" fill="none" xmlns="http://www.w3.org/2000/svg">
<rect x="9.20605" y="0.388428" width="56" height="56" rx="12" transform="rotate(9.05945 9.20605 0.388428)" fill="white"/>
<path d="M48.3204 35.2883C49.7117 26.5621 43.7656 18.36 35.0393 16.9686C26.313 15.5772 18.1109 21.5234 16.7195 30.2496C15.4621 38.136 20.1978 45.5941 27.5624 47.9838L29.3229 36.9426L25.3111 36.303L26.0393 31.7356L30.0511 32.3753L30.6062 28.8943C31.2376 24.9343 33.9453 23.1231 37.5545 23.6986C39.2831 23.9742 41.0421 24.5711 41.0421 24.5711L40.4221 28.4595L38.4298 28.1418C36.4669 27.8288 35.6606 28.9492 35.4613 30.1988L34.9888 33.1626L39.3709 33.8613L37.9421 38.317L34.2605 37.7299L32.5 48.7711C40.2426 48.7902 47.0629 43.1748 48.3204 35.2883Z" fill="#1877F2"/>
<path d="M37.9421 38.3169L39.3709 33.8613L34.9887 33.1625L35.4613 30.1987C35.6606 28.949 36.4669 27.8287 38.4297 28.1417L40.4221 28.4594L41.0421 24.571C41.0421 24.571 39.2831 23.9741 37.5543 23.6984C33.9453 23.123 31.2376 24.9342 30.6062 28.8942L30.0511 32.3752L26.0393 31.7356L25.311 36.3029L29.3229 36.9425L27.5624 47.9837C28.3587 48.2419 29.1739 48.4377 30.0006 48.5693C30.8272 48.7013 31.6629 48.7688 32.5 48.771L34.2605 37.7298L37.9421 38.3169Z" fill="white"/>
</svg>
