<svg width="24" height="24" viewBox="0 0 24 24" fill="none" xmlns="http://www.w3.org/2000/svg">
<g clip-path="url(#clip0_446_812)">
<path d="M23.5216 6.18541C23.3859 5.67482 23.1185 5.20883 22.7462 4.83407C22.3738 4.4593 21.9095 4.18891 21.3998 4.04996C19.5234 3.54541 12.0234 3.54541 12.0234 3.54541C12.0234 3.54541 4.52344 3.54541 2.64707 4.04996C2.13737 4.18891 1.6731 4.4593 1.30073 4.83407C0.928354 5.20883 0.660943 5.67482 0.525256 6.18541C0.0234376 8.06996 0.0234375 12 0.0234375 12C0.0234375 12 0.0234376 15.93 0.525256 17.8145C0.660943 18.3251 0.928354 18.7911 1.30073 19.1658C1.6731 19.5406 2.13737 19.811 2.64707 19.95C4.52344 20.4545 12.0234 20.4545 12.0234 20.4545C12.0234 20.4545 19.5234 20.4545 21.3998 19.95C21.9095 19.811 22.3738 19.5406 22.7462 19.1658C23.1185 18.7911 23.3859 18.3251 23.5216 17.8145C24.0234 15.93 24.0234 12 24.0234 12C24.0234 12 24.0234 8.06996 23.5216 6.18541Z" fill="#AFB0B1"/>
<path d="M9.56934 15.5689V8.43164L15.8421 12.0003L9.56934 15.5689Z" fill="#061447"/>
</g>
<defs>
<clipPath id="clip0_446_812">
<rect width="24" height="24" fill="white"/>
</clipPath>
</defs>
</svg>
