<svg width="48" height="48" viewBox="0 0 48 48" fill="none" xmlns="http://www.w3.org/2000/svg">
<circle cx="24" cy="24" r="23.5" stroke="#E6E7E7"/>
<path d="M37.0741 21.3885H36.0001V21.3332H24.0001V26.6665H31.5354C30.4361 29.7712 27.4821 31.9998 24.0001 31.9998C19.5821 31.9998 16.0001 28.4178 16.0001 23.9998C16.0001 19.5818 19.5821 15.9998 24.0001 15.9998C26.0394 15.9998 27.8947 16.7692 29.3074 18.0258L33.0787 14.2545C30.6974 12.0352 27.5121 10.6665 24.0001 10.6665C16.6367 10.6665 10.6667 16.6365 10.6667 23.9998C10.6667 31.3632 16.6367 37.3332 24.0001 37.3332C31.3634 37.3332 37.3334 31.3632 37.3334 23.9998C37.3334 23.1058 37.2414 22.2332 37.0741 21.3885Z" fill="#FFC107"/>
<path d="M12.2041 17.7938L16.5848 21.0065C17.7701 18.0718 20.6408 15.9998 24.0001 15.9998C26.0394 15.9998 27.8948 16.7692 29.3074 18.0258L33.0788 14.2545C30.6974 12.0352 27.5121 10.6665 24.0001 10.6665C18.8788 10.6665 14.4374 13.5578 12.2041 17.7938Z" fill="#FF3D00"/>
<path d="M23.9999 37.3333C27.4439 37.3333 30.5732 36.0153 32.9392 33.872L28.8125 30.38C27.4289 31.4322 25.7382 32.0013 23.9999 32C20.5319 32 17.5872 29.7886 16.4779 26.7026L12.1299 30.0526C14.3365 34.3706 18.8179 37.3333 23.9999 37.3333Z" fill="#4CAF50"/>
<path d="M37.074 21.3888H36V21.3335H24V26.6668H31.5353C31.0095 28.1444 30.0622 29.4356 28.8107 30.3808L28.8127 30.3795L32.9393 33.8715C32.6473 34.1368 37.3333 30.6668 37.3333 24.0002C37.3333 23.1062 37.2413 22.2335 37.074 21.3888Z" fill="#1976D2"/>
</svg>
