<svg width="66" height="66" viewBox="0 0 66 66" fill="none" xmlns="http://www.w3.org/2000/svg">
<rect y="11.1035" width="56" height="56" rx="12" transform="rotate(-11.4363 0 11.1035)" fill="white"/>
<path d="M45.3105 27.8715L44.2578 28.0845L44.2468 28.0302L32.4851 30.4096L33.5426 35.637L40.9283 34.1429C40.4664 37.4039 38.0129 40.1741 34.6001 40.8645C30.2698 41.7405 26.0487 38.9398 25.1727 34.6095C24.2967 30.2792 27.0973 26.0581 31.4276 25.1821C33.4264 24.7778 35.3975 25.164 37.0313 26.1156L39.98 21.6713C37.2059 19.9682 33.8124 19.2583 30.3701 19.9547C23.153 21.4147 18.4852 28.4499 19.9452 35.667C21.4052 42.8841 28.4404 47.5519 35.6575 46.0919C42.8747 44.6319 47.5424 37.5967 46.0824 30.3796C45.9052 29.5033 45.642 28.6662 45.3105 27.8715Z" fill="#FFC107"/>
<path d="M20.2215 29.2795L25.1522 31.5598C25.7322 28.4484 28.135 25.8483 31.4276 25.1823C33.4265 24.7779 35.3975 25.1641 37.0313 26.1157L39.98 21.6715C37.2059 19.9684 33.8124 19.2585 30.3701 19.9548C25.3505 20.9703 21.5706 24.6848 20.2215 29.2795Z" fill="#FF3D00"/>
<path d="M35.6576 46.0919C39.0332 45.4091 41.8391 43.4967 43.7331 40.9268L38.996 38.3224C37.8485 39.6281 36.3041 40.5212 34.6001 40.8645C31.2009 41.5521 27.8763 39.9685 26.1771 37.1638L22.5796 41.3094C25.5987 45.1041 30.5784 47.1194 35.6576 46.0919Z" fill="#4CAF50"/>
<path d="M45.3105 27.8716L44.2578 28.0846L44.2469 28.0303L32.4851 30.4097L33.5426 35.6371L40.9283 34.143C40.7059 35.6956 40.0335 37.1489 38.9941 38.3235L38.9958 38.3218L43.733 40.9263C43.4994 41.2442 47.4043 36.914 46.0825 30.3797C45.9052 29.5034 45.642 28.6663 45.3105 27.8716Z" fill="#1976D2"/>
</svg>
