<svg width="175" height="52" viewBox="0 0 175 52" fill="none" xmlns="http://www.w3.org/2000/svg">
<path d="M169.549 31.7795L174.404 34.7103C172.828 36.812 169.059 40.418 162.544 40.418C154.453 40.418 148.427 34.749 148.427 27.5374C148.427 19.8634 154.517 14.6572 161.863 14.6572C169.251 14.6572 172.871 19.9789 174.042 22.8519L174.681 24.3175L155.645 31.4517C157.093 34.0356 159.35 35.3467 162.544 35.3467C165.738 35.3467 167.952 33.9198 169.549 31.7795ZM154.623 27.1329L167.335 22.3507C166.632 20.7505 164.546 19.613 162.054 19.613C158.882 19.613 154.474 22.1582 154.623 27.1329Z" fill="#FF302F"/>
<path d="M139.25 1.52637H145.382V39.2418H139.25V1.52637Z" fill="#20B15A"/>
<path d="M129.584 15.6599H135.503V38.5668C135.503 48.0726 129.307 51.9869 121.982 51.9869C115.084 51.9869 110.932 47.7835 109.377 44.3707L114.807 42.3266C115.786 44.4283 118.15 46.9159 121.982 46.9159C126.688 46.9159 129.584 44.2742 129.584 39.3382V37.4872H129.371C127.965 39.0296 125.283 40.4178 121.876 40.4178C114.764 40.4178 108.249 34.8068 108.249 27.5763C108.249 20.3068 114.764 14.6382 121.876 14.6382C125.261 14.6382 127.965 16.0072 129.371 17.5112H129.584V15.6599ZM130.009 27.5763C130.009 23.0257 126.667 19.7091 122.408 19.7091C118.107 19.7091 114.487 23.0257 114.487 27.5763C114.487 32.0687 118.107 35.3274 122.408 35.3274C126.667 35.3469 130.01 32.0687 130.01 27.5763" fill="#3686F7"/>
<path d="M74.5855 27.4795C74.5855 34.9031 68.198 40.3597 60.3624 40.3597C52.527 40.3597 46.1392 34.8839 46.1392 27.4795C46.1392 20.0175 52.527 14.5801 60.3624 14.5801C68.198 14.5801 74.5855 20.0175 74.5855 27.4795ZM68.3683 27.4795C68.3683 22.8521 64.6632 19.6702 60.3624 19.6702C56.0615 19.6702 52.3564 22.8521 52.3564 27.4795C52.3564 32.0685 56.0615 35.2888 60.3624 35.2888C64.6635 35.2888 68.3683 32.0685 68.3683 27.4795Z" fill="#FF302F"/>
<path d="M105.651 27.5374C105.651 34.9611 99.2634 40.4177 91.428 40.4177C83.5923 40.4177 77.2048 34.9608 77.2048 27.5374C77.2048 20.0754 83.5923 14.6572 91.428 14.6572C99.2634 14.6572 105.651 20.0563 105.651 27.5374ZM99.4124 27.5374C99.4124 22.9101 95.7077 19.7282 91.4065 19.7282C87.1057 19.7282 83.4006 22.9101 83.4006 27.5374C83.4006 32.1264 87.1057 35.3467 91.4065 35.3467C95.7289 35.3467 99.4124 32.1073 99.4124 27.5374Z" fill="#FFBA40"/>
<path d="M22.7604 34.7684C13.8388 34.7684 6.85518 28.2511 6.85518 20.1719C6.85518 12.093 13.8388 5.57567 22.7604 5.57567C27.5725 5.57567 31.0855 7.29167 33.6832 9.48991L37.9631 5.61437C34.3435 2.47146 29.5102 0.0800781 22.7604 0.0800781C10.5387 0.0803876 0.254395 9.10455 0.254395 20.1719C0.254395 31.2398 10.5387 40.2637 22.7604 40.2637C29.3611 40.2637 34.3435 38.297 38.24 34.6335C42.2428 31.0083 43.4777 25.9179 43.4777 21.7916C43.4777 20.4997 43.3075 19.1693 43.1157 18.186H22.7604V23.5463H37.2604C36.8345 26.9016 35.6635 29.1961 33.9388 30.7576C31.8521 32.6667 28.5521 34.7684 22.7604 34.7684Z" fill="#3686F7"/>
</svg>
