<svg width="68" height="68" viewBox="0 0 68 68" fill="none" xmlns="http://www.w3.org/2000/svg">
<rect width="68" height="68" rx="8" fill="#DEF3FF"/>
<path opacity="0.2" d="M42.9995 33.0007L40.2021 25.5411C40.1405 25.3768 40.0368 25.2316 39.9013 25.1201C39.7658 25.0086 39.6033 24.9347 39.4302 24.9059L21.9995 22.0007L24.9047 39.4315C24.9335 39.6045 25.0074 39.767 25.1189 39.9025C25.2304 40.038 25.3756 40.1418 25.5399 40.2034L32.9995 43.0007L42.9995 33.0007ZM29.9999 32.5C29.9999 32.0056 30.1466 31.5222 30.4213 31.1111C30.696 30.7 31.0864 30.3795 31.5432 30.1903C32 30.0011 32.5027 29.9516 32.9877 30.048C33.4726 30.1445 33.9181 30.3826 34.2677 30.7322C34.6173 31.0819 34.8554 31.5273 34.9519 32.0123C35.0484 32.4972 34.9989 32.9999 34.8096 33.4567C34.6204 33.9135 34.3 34.304 33.8889 34.5787C33.4777 34.8534 32.9944 35 32.4999 35C32.1716 35 31.8465 34.9353 31.5432 34.8097C31.2399 34.6841 30.9643 34.4999 30.7322 34.2678C30.5 34.0356 30.3159 33.76 30.1902 33.4567C30.0646 33.1534 29.9999 32.8283 29.9999 32.5Z" fill="#01A3E0"/>
<path d="M30 32.5C30 33.8807 31.1193 35 32.5 35C33.8807 35 35 33.8807 35 32.5C35 31.1193 33.8807 30 32.5 30C31.1193 30 30 31.1193 30 32.5Z" stroke="#01A3E0" stroke-width="2" stroke-linecap="round" stroke-linejoin="round"/>
<path d="M21.9995 22.0007L30.7322 30.7322" stroke="#01A3E0" stroke-width="2" stroke-linecap="round" stroke-linejoin="round"/>
<path d="M21.9996 22.0007L24.9048 39.4314C24.9336 39.6045 25.0075 39.767 25.119 39.9025C25.2305 40.038 25.3757 40.1418 25.54 40.2034L32.9996 43.0007L42.9996 33.0007L40.2023 25.5411C40.1407 25.3768 40.0369 25.2316 39.9014 25.1201C39.7659 25.0086 39.6034 24.9347 39.4303 24.9059L21.9996 22.0007Z" stroke="#01A3E0" stroke-width="2" stroke-linecap="round" stroke-linejoin="round"/>
<path d="M32.9995 43.0007L36.2924 46.2936C36.3853 46.3865 36.4955 46.4601 36.6169 46.5104C36.7382 46.5607 36.8682 46.5865 36.9995 46.5865C37.1309 46.5865 37.2609 46.5607 37.3822 46.5104C37.5035 46.4601 37.6138 46.3865 37.7066 46.2936L46.2924 37.7078C46.48 37.5203 46.5853 37.2659 46.5853 37.0007C46.5853 36.7355 46.48 36.4812 46.2924 36.2936L42.9995 33.0007" stroke="#01A3E0" stroke-width="2" stroke-linecap="round" stroke-linejoin="round"/>
</svg>
