<svg width="68" height="68" viewBox="0 0 68 68" fill="none" xmlns="http://www.w3.org/2000/svg">
<rect width="68" height="68" rx="8" fill="#DEF3FF"/>
<g clip-path="url(#clip0_116_2372)">
<path opacity="0.2" d="M44.721 23.3733C44.87 23.3298 45.0271 23.3216 45.1799 23.3494C45.3326 23.3772 45.4768 23.4401 45.601 23.5333C45.7252 23.6264 45.826 23.7472 45.8954 23.886C45.9648 24.0249 46.001 24.178 46.001 24.3333V41.6666C46.001 41.8218 45.9648 41.9749 45.8954 42.1138C45.826 42.2526 45.7252 42.3734 45.601 42.4666C45.4768 42.5597 45.3326 42.6227 45.1799 42.6504C45.0271 42.6782 44.87 42.67 44.721 42.6266L33.0002 39.208V26.7918L44.721 23.3733Z" fill="#01A3E0"/>
<path d="M46.001 24.3333V41.6666C46.001 41.8218 45.9648 41.9749 45.8954 42.1138C45.826 42.2526 45.7252 42.3734 45.601 42.4666C45.4768 42.5597 45.3326 42.6227 45.1799 42.6504C45.0271 42.6782 44.87 42.67 44.721 42.6266L22.721 36.2099C22.5133 36.1493 22.3308 36.023 22.201 35.8499C22.0712 35.6768 22.001 35.4663 22.001 35.2499V30.7499C22.001 30.5335 22.0712 30.323 22.201 30.1499C22.3308 29.9768 22.5133 29.8505 22.721 29.7899L44.721 23.3733C44.87 23.3298 45.0271 23.3216 45.1799 23.3494C45.3326 23.3772 45.4768 23.4401 45.601 23.5333C45.7252 23.6264 45.826 23.7472 45.8954 23.886C45.9648 24.0249 46.001 24.178 46.001 24.3333V24.3333Z" stroke="#01A3E0" stroke-width="2" stroke-linecap="round" stroke-linejoin="round"/>
<path d="M27 37.4581V42C27 42.2652 27.1054 42.5196 27.2929 42.7071C27.4804 42.8946 27.7348 43 28 43H32C32.2652 43 32.5196 42.8946 32.7071 42.7071C32.8946 42.5196 33 42.2652 33 42V26.7919" stroke="#01A3E0" stroke-width="2" stroke-linecap="round" stroke-linejoin="round"/>
</g>
<defs>
<clipPath id="clip0_116_2372">
<rect width="32" height="32" fill="white" transform="matrix(-1 0 0 1 50 18)"/>
</clipPath>
</defs>
</svg>
