<svg width="42" height="42" viewBox="0 0 42 42" fill="none" xmlns="http://www.w3.org/2000/svg">
<path d="M29 22C29.5523 22 30 21.5523 30 21C30 20.4477 29.5523 20 29 20V22ZM13 21L12.2929 20.2929C11.9024 20.6834 11.9024 21.3166 12.2929 21.7071L13 21ZM19.7071 15.7071C20.0976 15.3166 20.0976 14.6834 19.7071 14.2929C19.3166 13.9024 18.6834 13.9024 18.2929 14.2929L19.7071 15.7071ZM18.2929 27.7071C18.6834 28.0976 19.3166 28.0976 19.7071 27.7071C20.0976 27.3166 20.0976 26.6834 19.7071 26.2929L18.2929 27.7071ZM40 21C40 31.4934 31.4934 40 21 40V42C32.598 42 42 32.598 42 21H40ZM21 40C10.5066 40 2 31.4934 2 21H0C0 32.598 9.40202 42 21 42V40ZM2 21C2 10.5066 10.5066 2 21 2V0C9.40202 0 0 9.40202 0 21H2ZM21 2C31.4934 2 40 10.5066 40 21H42C42 9.40202 32.598 0 21 0V2ZM29 20H13V22H29V20ZM13.7071 21.7071L19.7071 15.7071L18.2929 14.2929L12.2929 20.2929L13.7071 21.7071ZM12.2929 21.7071L18.2929 27.7071L19.7071 26.2929L13.7071 20.2929L12.2929 21.7071Z" fill="#3C3D3D"/>
</svg>
