<svg width="24" height="24" viewBox="0 0 24 24" fill="none" xmlns="http://www.w3.org/2000/svg">
<path d="M21.3748 12C21.3748 12.2984 21.2563 12.5845 21.0453 12.7955C20.8343 13.0065 20.5482 13.125 20.2498 13.125H6.46858L11.2967 17.9531C11.4016 18.0576 11.4848 18.1818 11.5416 18.3186C11.5984 18.4553 11.6276 18.6019 11.6276 18.75C11.6276 18.8981 11.5984 19.0447 11.5416 19.1814C11.4848 19.3182 11.4016 19.4424 11.2967 19.5469C11.0844 19.7564 10.7981 19.8739 10.4998 19.8739C10.2015 19.8739 9.91525 19.7564 9.70296 19.5469L2.95296 12.7969C2.84808 12.6924 2.76486 12.5682 2.70808 12.4314C2.6513 12.2947 2.62207 12.1481 2.62207 12C2.62207 11.8519 2.6513 11.7053 2.70808 11.5686C2.76486 11.4318 2.84808 11.3076 2.95296 11.2031L9.70296 4.45312C9.9143 4.24178 10.2009 4.12305 10.4998 4.12305C10.6478 4.12305 10.7944 4.1522 10.9311 4.20883C11.0678 4.26547 11.1921 4.34848 11.2967 4.45312C11.4014 4.55777 11.4844 4.682 11.541 4.81873C11.5976 4.95546 11.6268 5.10201 11.6268 5.25C11.6268 5.39799 11.5976 5.54454 11.541 5.68126C11.4844 5.81799 11.4014 5.94223 11.2967 6.04687L6.46858 10.875H20.2498C20.5482 10.875 20.8343 10.9935 21.0453 11.2045C21.2563 11.4155 21.3748 11.7016 21.3748 12Z" fill="#6B6D6F"/>
</svg>
