<svg width="20" height="20" viewBox="0 0 20 20" fill="none" xmlns="http://www.w3.org/2000/svg">
<path d="M16.6667 8.48487C16.6667 13.7879 10 18.3334 10 18.3334C10 18.3334 3.33337 13.7879 3.33337 8.48487C3.33337 6.67657 4.03575 4.94234 5.286 3.66369C6.53624 2.38503 8.23193 1.66669 10 1.66669C11.7682 1.66669 13.4638 2.38503 14.7141 3.66369C15.9643 4.94234 16.6667 6.67657 16.6667 8.48487Z" stroke="#6B6D6F" stroke-linecap="round" stroke-linejoin="round"/>
<path d="M10 10.8333C11.3807 10.8333 12.5 9.71402 12.5 8.33331C12.5 6.9526 11.3807 5.83331 10 5.83331C8.61929 5.83331 7.5 6.9526 7.5 8.33331C7.5 9.71402 8.61929 10.8333 10 10.8333Z" stroke="#6B6D6F" stroke-linecap="round" stroke-linejoin="round"/>
</svg>
