<svg width="24" height="24" viewBox="0 0 24 24" fill="none" xmlns="http://www.w3.org/2000/svg">
<path d="M2.62517 12C2.62517 12.2984 2.74369 12.5845 2.95467 12.7955C3.16565 13.0065 3.4518 13.125 3.75017 13.125H17.5314L12.7033 17.9531C12.5984 18.0576 12.5152 18.1818 12.4584 18.3186C12.4016 18.4553 12.3724 18.6019 12.3724 18.75C12.3724 18.8981 12.4016 19.0447 12.4584 19.1814C12.5152 19.3182 12.5984 19.4424 12.7033 19.5469C12.9156 19.7564 13.2019 19.8739 13.5002 19.8739C13.7985 19.8739 14.0847 19.7564 14.297 19.5469L21.047 12.7969C21.1519 12.6924 21.2351 12.5682 21.2919 12.4314C21.3487 12.2947 21.3779 12.1481 21.3779 12C21.3779 11.8519 21.3487 11.7053 21.2919 11.5686C21.2351 11.4318 21.1519 11.3076 21.047 11.2031L14.297 4.45312C14.0857 4.24178 13.7991 4.12305 13.5002 4.12305C13.3522 4.12305 13.2056 4.1522 13.0689 4.20883C12.9322 4.26547 12.8079 4.34848 12.7033 4.45312C12.5986 4.55777 12.5156 4.682 12.459 4.81873C12.4024 4.95546 12.3732 5.10201 12.3732 5.25C12.3732 5.39799 12.4024 5.54454 12.459 5.68126C12.5156 5.81799 12.5986 5.94223 12.7033 6.04687L17.5314 10.875H3.75017C3.4518 10.875 3.16565 10.9935 2.95467 11.2045C2.74369 11.4155 2.62517 11.7016 2.62517 12Z" fill="#6B6D6F"/>
</svg>
