<svg width="42" height="42" viewBox="0 0 42 42" fill="none" xmlns="http://www.w3.org/2000/svg">
<path d="M13 22C12.4477 22 12 21.5523 12 21C12 20.4477 12.4477 20 13 20V22ZM29 21L29.7071 20.2929C30.0976 20.6834 30.0976 21.3166 29.7071 21.7071L29 21ZM22.2929 15.7071C21.9024 15.3166 21.9024 14.6834 22.2929 14.2929C22.6834 13.9024 23.3166 13.9024 23.7071 14.2929L22.2929 15.7071ZM23.7071 27.7071C23.3166 28.0976 22.6834 28.0976 22.2929 27.7071C21.9024 27.3166 21.9024 26.6834 22.2929 26.2929L23.7071 27.7071ZM2 21C2 31.4934 10.5066 40 21 40V42C9.40202 42 0 32.598 0 21H2ZM21 40C31.4934 40 40 31.4934 40 21H42C42 32.598 32.598 42 21 42V40ZM40 21C40 10.5066 31.4934 2 21 2V0C32.598 0 42 9.40202 42 21H40ZM21 2C10.5066 2 2 10.5066 2 21H0C0 9.40202 9.40202 0 21 0V2ZM13 20H29V22H13V20ZM28.2929 21.7071L22.2929 15.7071L23.7071 14.2929L29.7071 20.2929L28.2929 21.7071ZM29.7071 21.7071L23.7071 27.7071L22.2929 26.2929L28.2929 20.2929L29.7071 21.7071Z" fill="#3C3D3D"/>
</svg>
