<svg width="48" height="48" viewBox="0 0 48 48" fill="none" xmlns="http://www.w3.org/2000/svg">
<circle cx="24" cy="24" r="23.5" stroke="#E6E7E7"/>
<path d="M37.0035 25.7286C37.0851 25.156 37.1273 24.5784 37.1297 23.9999C37.1297 20.5177 35.7464 17.1782 33.2841 14.7159C30.8218 12.2536 27.4822 10.8703 24 10.8703C23.4216 10.8727 22.844 10.9149 22.2714 10.9965C19.035 9.25225 15.0375 9.83815 12.4379 12.438C9.83816 15.0376 9.25226 19.0349 10.9965 22.2714C10.9149 22.844 10.8727 23.4215 10.8702 23.9999C10.8702 31.2514 16.7486 37.1297 24 37.1297C24.5783 37.1273 25.156 37.0851 25.7287 37.0035C28.965 38.7477 32.9624 38.1618 35.5622 35.562C38.1618 32.9624 38.7478 28.965 37.0035 25.7286Z" fill="white"/>
<path d="M18.3125 26.625C22.9034 26.625 26.625 22.9034 26.625 18.3125C26.625 13.7216 22.9034 10 18.3125 10C13.7216 10 10 13.7216 10 18.3125C10 22.9034 13.7216 26.625 18.3125 26.625Z" fill="url(#paint0_linear_347_682)"/>
<path d="M29.6875 38C34.2784 38 38 34.2784 38 29.6875C38 25.0966 34.2784 21.375 29.6875 21.375C25.0966 21.375 21.375 25.0966 21.375 29.6875C21.375 34.2784 25.0966 38 29.6875 38Z" fill="url(#paint1_linear_347_682)"/>
<mask id="mask0_347_682" style="mask-type:luminance" maskUnits="userSpaceOnUse" x="10" y="10" width="28" height="28">
<path d="M29.6769 21.3952C28.1928 21.3949 26.736 21.7935 25.4587 22.5491C27.5953 18.9464 26.7164 14.3163 23.4081 11.7471C20.0999 9.17761 15.3966 9.47215 12.4346 12.4342C9.47266 15.3961 9.17812 20.0995 11.7475 23.4077C14.3168 26.716 18.9467 27.5949 22.5496 25.4583C20.6367 28.7003 21.145 32.8239 23.7879 35.5043C26.431 38.1848 30.5469 38.7511 33.8156 36.8839C37.0843 35.0168 38.6873 31.1836 37.7207 27.5454C36.7543 23.9072 33.4607 21.3749 29.6961 21.3759L29.6769 21.3952Z" fill="white"/>
</mask>
<g mask="url(#mask0_347_682)">
<path d="M23.7317 40.1202C32.2978 40.1202 39.242 33.176 39.242 24.6099C39.242 16.0438 32.2978 9.09961 23.7317 9.09961C15.1656 9.09961 8.22144 16.0438 8.22144 24.6099C8.22144 33.176 15.1656 40.1202 23.7317 40.1202Z" fill="url(#paint2_radial_347_682)"/>
</g>
<path d="M24 37.125C31.2487 37.125 37.125 31.2487 37.125 24C37.125 16.7513 31.2487 10.875 24 10.875C16.7513 10.875 10.875 16.7513 10.875 24C10.875 31.2487 16.7513 37.125 24 37.125Z" fill="url(#paint3_linear_347_682)"/>
<path d="M24 37.125C31.2487 37.125 37.125 31.2487 37.125 24C37.125 16.7513 31.2487 10.875 24 10.875C16.7513 10.875 10.875 16.7513 10.875 24C10.875 31.2487 16.7513 37.125 24 37.125Z" fill="url(#paint4_linear_347_682)"/>
<path d="M19.3133 22.4233C19.0111 21.851 18.8605 21.2094 18.8761 20.561C18.8567 19.7414 19.1338 18.9427 19.6555 18.3147C20.2045 17.6891 20.9057 17.2192 21.6897 16.9515C22.5414 16.648 23.4386 16.4953 24.3417 16.5003C24.9336 16.4961 25.5249 16.541 26.1096 16.6346C26.5265 16.7052 26.9367 16.8112 27.3359 16.9515C27.6985 17.0779 28.0248 17.2922 28.2865 17.5755C28.4862 17.8028 28.5947 18.0972 28.5906 18.4011C28.5979 18.5604 28.574 18.7196 28.5202 18.8695C28.4663 19.0194 28.3837 19.1571 28.2769 19.2746C28.1773 19.3817 28.0563 19.4662 27.9219 19.5224C27.7876 19.5787 27.6429 19.6055 27.4975 19.601C27.294 19.5978 27.0933 19.552 26.9081 19.4666C26.4604 19.2663 25.9999 19.0963 25.5298 18.9577C25.0925 18.8422 24.6416 18.7873 24.1897 18.7947C23.6039 18.7748 23.0243 18.9211 22.5166 19.2169C22.303 19.3481 22.1284 19.535 22.0112 19.7581C21.8941 19.9812 21.8388 20.232 21.8513 20.4842C21.8478 20.8122 21.9705 21.1288 22.1935 21.3673C22.4662 21.6515 22.7884 21.8825 23.144 22.0489C23.5337 22.2409 24.0946 22.5001 24.893 22.8266L25.1401 22.9225C25.8941 23.2127 26.6171 23.5794 27.2979 24.0168C27.8403 24.3719 28.298 24.844 28.6381 25.3992C28.9725 25.9816 29.1403 26.6462 29.1229 27.3192C29.1498 28.1436 28.9132 28.9548 28.448 29.6327C27.9708 30.2849 27.3074 30.774 26.5469 31.0344C25.6476 31.3583 24.6974 31.5144 23.7428 31.4951C22.4376 31.5388 21.139 31.2897 19.9406 30.7655C19.6336 30.626 19.3634 30.4155 19.1517 30.1512C18.9852 29.902 18.8989 29.607 18.9046 29.3064C18.8942 29.148 18.9186 28.9893 18.9761 28.8416C19.0337 28.6939 19.1229 28.5609 19.2373 28.4521C19.4749 28.2396 19.7853 28.1294 20.1023 28.1448C20.4567 28.1499 20.805 28.2387 21.1193 28.404C21.509 28.596 21.8132 28.7496 22.0699 28.8456C22.3243 28.9541 22.5885 29.0377 22.8588 29.0951C23.1924 29.1718 23.5339 29.2073 23.876 29.2008C24.4813 29.2458 25.0841 29.0835 25.5869 28.74C25.7768 28.5931 25.9287 28.4021 26.0296 28.1831C26.1306 27.9641 26.1776 27.7238 26.1667 27.4825C26.1758 27.127 26.046 26.7821 25.8055 26.5225C25.4955 26.2032 25.1359 25.9373 24.7408 25.7353C24.2751 25.4856 23.6097 25.1881 22.7638 24.8233C22.0037 24.5176 21.2747 24.1382 20.587 23.6905C20.0728 23.3451 19.6246 22.9621 19.3133 22.4233Z" fill="white"/>
<defs>
<linearGradient id="paint0_linear_347_682" x1="711.126" y1="19.709" x2="971.374" y2="1662.79" gradientUnits="userSpaceOnUse">
<stop offset="0.01" stop-color="#00B7F0"/>
<stop offset="0.34" stop-color="#009DE5"/>
<stop offset="0.76" stop-color="#0082D9"/>
<stop offset="1" stop-color="#0078D4"/>
</linearGradient>
<linearGradient id="paint1_linear_347_682" x1="132.081" y1="1268.25" x2="1573.17" y2="437" gradientUnits="userSpaceOnUse">
<stop stop-color="#0078D4"/>
<stop offset="0.37" stop-color="#007AD5"/>
<stop offset="0.57" stop-color="#0082D9"/>
<stop offset="0.74" stop-color="#0090DF"/>
<stop offset="0.88" stop-color="#00A3E7"/>
<stop offset="1" stop-color="#00BCF2"/>
</linearGradient>
<radialGradient id="paint2_radial_347_682" cx="0" cy="0" r="1" gradientUnits="userSpaceOnUse" gradientTransform="translate(1513.93 1560.13) scale(1551.68 1551.68)">
<stop/>
<stop offset="1" stop-opacity="0"/>
</radialGradient>
<linearGradient id="paint3_linear_347_682" x1="809.82" y1="434.13" x2="2122.32" y2="2707.72" gradientUnits="userSpaceOnUse">
<stop stop-color="#00B7F0"/>
<stop offset="1" stop-color="#007CC1"/>
</linearGradient>
<linearGradient id="paint4_linear_347_682" x1="1208.82" y1="2631.02" x2="1437.93" y2="15.7313" gradientUnits="userSpaceOnUse">
<stop stop-color="#0078D4"/>
<stop offset="1" stop-color="#00BCF2"/>
</linearGradient>
</defs>
</svg>
