<svg width="48" height="48" viewBox="0 0 48 48" fill="none" xmlns="http://www.w3.org/2000/svg">
<circle cx="24" cy="24" r="23.5" stroke="#E6E7E7"/>
<path d="M38 15.604C36.9517 16.054 35.8393 16.3489 34.7003 16.4788C35.8963 15.782 36.7925 14.6918 37.2248 13.4079C36.0967 14.0536 34.8631 14.5087 33.5768 14.7536C32.7111 13.8621 31.5655 13.2715 30.3175 13.0734C29.0695 12.8753 27.7888 13.0808 26.6737 13.658C25.5587 14.2352 24.6717 15.1519 24.1501 16.266C23.6285 17.3802 23.5014 18.6296 23.7885 19.8207C21.5043 19.7096 19.2698 19.1352 17.2299 18.1349C15.1901 17.1346 13.3905 15.7307 11.9481 14.0143C11.4373 14.8623 11.1688 15.8264 11.1702 16.8078C11.1691 17.7224 11.4018 18.6231 11.8475 19.4297C12.2933 20.2362 12.9384 20.9238 13.7253 21.431C12.8132 21.4037 11.9211 21.1657 11.1235 20.7368V20.8052C11.1229 22.0883 11.5816 23.332 12.4217 24.325C13.2618 25.3181 14.4315 25.9993 15.7321 26.2529C15.2518 26.382 14.7447 26.4426 14.219 26.4426C13.8481 26.4426 13.4892 26.4129 13.1382 26.3446C13.5054 27.4483 14.22 28.4134 15.1822 29.1052C16.1444 29.7969 17.306 30.1806 18.5047 30.2026C16.0939 32.0227 13.0372 32.8482 10 32.4994C12.6253 34.1353 15.6831 35.0036 18.8063 35C29.3738 35 35.1486 26.5329 35.1486 19.1936C35.1486 18.9523 35.146 18.7136 35.1353 18.4749C36.2605 17.6928 37.2305 16.7206 37.9987 15.6053" fill="#1D9BF0"/>
</svg>
