<svg width="126" height="132" viewBox="0 0 126 132" fill="none" xmlns="http://www.w3.org/2000/svg">
<rect width="126" height="132" rx="16" fill="white"/>
<path d="M32.392 87V84.456L35.464 81.84C36.744 80.768 37.84 79.856 38.752 79.104C39.664 78.352 40.36 77.648 40.84 76.992C41.32 76.336 41.56 75.632 41.56 74.88C41.56 74.304 41.424 73.824 41.152 73.44C40.88 73.04 40.528 72.744 40.096 72.552C39.68 72.344 39.24 72.24 38.776 72.24C38.216 72.24 37.744 72.344 37.36 72.552C36.992 72.76 36.696 73.032 36.472 73.368C36.264 73.688 36.112 74.024 36.016 74.376C35.92 74.728 35.872 75.032 35.872 75.288H32.32C32.32 74.616 32.448 73.92 32.704 73.2C32.96 72.464 33.352 71.784 33.88 71.16C34.408 70.52 35.088 70 35.92 69.6C36.752 69.2 37.744 69 38.896 69C40.064 69 41.128 69.232 42.088 69.696C43.048 70.144 43.816 70.792 44.392 71.64C44.984 72.488 45.28 73.488 45.28 74.64C45.28 75.728 45.008 76.72 44.464 77.616C43.936 78.496 43.192 79.36 42.232 80.208C41.272 81.04 40.168 81.944 38.92 82.92L37.912 83.76H45.52V87H32.392ZM54.8575 87.24C53.6735 87.24 52.6175 87 51.6895 86.52C50.7775 86.04 50.0015 85.384 49.3615 84.552C48.7215 83.704 48.2335 82.728 47.8975 81.624C47.5775 80.52 47.4175 79.352 47.4175 78.12C47.4175 76.872 47.5775 75.696 47.8975 74.592C48.2335 73.488 48.7215 72.52 49.3615 71.688C50.0015 70.84 50.7775 70.184 51.6895 69.72C52.6175 69.24 53.6735 69 54.8575 69C56.0415 69 57.0895 69.24 58.0015 69.72C58.9295 70.184 59.7135 70.84 60.3535 71.688C60.9935 72.52 61.4735 73.488 61.7935 74.592C62.1295 75.696 62.2975 76.872 62.2975 78.12C62.2975 79.352 62.1295 80.52 61.7935 81.624C61.4735 82.728 60.9935 83.704 60.3535 84.552C59.7135 85.384 58.9295 86.04 58.0015 86.52C57.0895 87 56.0415 87.24 54.8575 87.24ZM54.8575 83.952C55.9135 83.952 56.7775 83.464 57.4495 82.488C58.1375 81.512 58.4815 80.056 58.4815 78.12C58.4815 76.184 58.1375 74.728 57.4495 73.752C56.7775 72.776 55.9135 72.288 54.8575 72.288C53.8015 72.288 52.9295 72.776 52.2415 73.752C51.5695 74.728 51.2335 76.184 51.2335 78.12C51.2335 80.056 51.5695 81.512 52.2415 82.488C52.9295 83.464 53.8015 83.952 54.8575 83.952ZM64.4142 87V69.24H68.1102V76.752L74.4702 69.24H79.0302L71.6142 77.76L79.2942 87H74.5662L68.1102 79.104V87H64.4142ZM82.2659 80.952V78.072H85.8659V74.472H88.7459V78.072H92.3459V80.952H88.7459V84.552H85.8659V80.952H82.2659Z" fill="#3C3D3D"/>
<path d="M20.904 113.14C20.5587 113.14 20.246 113.121 19.966 113.084C19.6953 113.047 19.56 113.028 19.56 113.028V111.614C19.56 111.614 19.6813 111.628 19.924 111.656C20.1667 111.675 20.414 111.684 20.666 111.684C21.3567 111.684 21.9073 111.516 22.318 111.18C22.7287 110.844 22.934 110.251 22.934 109.402V102.64H24.572V109.416C24.572 110.153 24.4367 110.802 24.166 111.362C23.8953 111.922 23.4893 112.361 22.948 112.678C22.416 112.986 21.7347 113.14 20.904 113.14ZM30.1669 113.14C29.3549 113.14 28.6689 112.958 28.1089 112.594C27.5582 112.23 27.1382 111.754 26.8489 111.166C26.5689 110.578 26.4289 109.953 26.4289 109.29C26.4289 108.627 26.5689 108.002 26.8489 107.414C27.1382 106.826 27.5582 106.35 28.1089 105.986C28.6689 105.622 29.3549 105.44 30.1669 105.44C30.9695 105.44 31.6462 105.622 32.1969 105.986C32.7569 106.35 33.1769 106.826 33.4569 107.414C33.7462 108.002 33.8909 108.627 33.8909 109.29C33.8909 109.953 33.7462 110.578 33.4569 111.166C33.1769 111.754 32.7569 112.23 32.1969 112.594C31.6462 112.958 30.9695 113.14 30.1669 113.14ZM30.1669 111.782C30.6242 111.782 31.0069 111.665 31.3149 111.432C31.6322 111.199 31.8702 110.891 32.0289 110.508C32.1969 110.125 32.2809 109.719 32.2809 109.29C32.2809 108.851 32.1969 108.445 32.0289 108.072C31.8702 107.689 31.6322 107.381 31.3149 107.148C31.0069 106.915 30.6242 106.798 30.1669 106.798C29.7095 106.798 29.3222 106.915 29.0049 107.148C28.6875 107.381 28.4495 107.689 28.2909 108.072C28.1322 108.445 28.0529 108.851 28.0529 109.29C28.0529 109.719 28.1322 110.125 28.2909 110.508C28.4495 110.891 28.6875 111.199 29.0049 111.432C29.3222 111.665 29.7095 111.782 30.1669 111.782ZM39.75 113.14C39.274 113.14 38.8773 113.065 38.56 112.916C38.252 112.767 38.0046 112.594 37.818 112.398C37.6406 112.202 37.5053 112.034 37.412 111.894H37.328V113H35.732V102.36H37.328V106.686H37.412C37.5053 106.546 37.6406 106.378 37.818 106.182C38.0046 105.986 38.252 105.813 38.56 105.664C38.8773 105.515 39.274 105.44 39.75 105.44C40.3006 105.44 40.786 105.552 41.206 105.776C41.626 105.991 41.9713 106.285 42.242 106.658C42.522 107.022 42.7273 107.433 42.858 107.89C42.998 108.347 43.068 108.814 43.068 109.29C43.068 109.766 42.998 110.233 42.858 110.69C42.7273 111.147 42.522 111.563 42.242 111.936C41.9713 112.3 41.626 112.594 41.206 112.818C40.786 113.033 40.3006 113.14 39.75 113.14ZM39.386 111.81C39.8526 111.81 40.2353 111.689 40.534 111.446C40.842 111.194 41.0706 110.877 41.22 110.494C41.3786 110.111 41.458 109.71 41.458 109.29C41.458 108.87 41.3786 108.469 41.22 108.086C41.0706 107.703 40.842 107.391 40.534 107.148C40.2353 106.896 39.8526 106.77 39.386 106.77C38.9286 106.77 38.546 106.896 38.238 107.148C37.9393 107.391 37.7106 107.703 37.552 108.086C37.4026 108.469 37.328 108.87 37.328 109.29C37.328 109.71 37.4026 110.111 37.552 110.494C37.7106 110.877 37.9393 111.194 38.238 111.446C38.546 111.689 38.9286 111.81 39.386 111.81ZM51.0717 113L47.4597 102.64H49.1817L52.1357 111.25L55.0757 102.64H56.7977L53.1717 113H51.0717ZM60.5909 105.44C61.0576 105.44 61.4449 105.515 61.7529 105.664C62.0703 105.813 62.3223 105.986 62.5089 106.182C62.6956 106.378 62.8309 106.546 62.9149 106.686H62.9989V105.58H64.5949V113H62.9989V111.894H62.9149C62.8309 112.034 62.6956 112.202 62.5089 112.398C62.3223 112.594 62.0703 112.767 61.7529 112.916C61.4449 113.065 61.0576 113.14 60.5909 113.14C60.0309 113.14 59.5409 113.033 59.1209 112.818C58.7103 112.594 58.3649 112.3 58.0849 111.936C57.8049 111.563 57.5949 111.147 57.4549 110.69C57.3243 110.233 57.2589 109.766 57.2589 109.29C57.2589 108.814 57.3243 108.347 57.4549 107.89C57.5949 107.433 57.8049 107.022 58.0849 106.658C58.3649 106.285 58.7103 105.991 59.1209 105.776C59.5409 105.552 60.0309 105.44 60.5909 105.44ZM60.9409 106.77C60.4836 106.77 60.1009 106.896 59.7929 107.148C59.4849 107.391 59.2516 107.703 59.0929 108.086C58.9436 108.469 58.8689 108.87 58.8689 109.29C58.8689 109.71 58.9436 110.111 59.0929 110.494C59.2516 110.877 59.4849 111.194 59.7929 111.446C60.1009 111.689 60.4836 111.81 60.9409 111.81C61.3983 111.81 61.7763 111.689 62.0749 111.446C62.3829 111.194 62.6116 110.877 62.7609 110.494C62.9196 110.111 62.9989 109.71 62.9989 109.29C62.9989 108.87 62.9196 108.469 62.7609 108.086C62.6116 107.703 62.3829 107.391 62.0749 107.148C61.7763 106.896 61.3983 106.77 60.9409 106.77ZM70.0747 113.14C69.4494 113.14 68.9034 113.033 68.4367 112.818C67.9701 112.594 67.5827 112.3 67.2747 111.936C66.9667 111.563 66.7334 111.147 66.5747 110.69C66.4254 110.233 66.3507 109.766 66.3507 109.29C66.3507 108.814 66.4254 108.347 66.5747 107.89C66.7334 107.433 66.9667 107.022 67.2747 106.658C67.5827 106.285 67.9701 105.991 68.4367 105.776C68.9034 105.552 69.4494 105.44 70.0747 105.44C70.6907 105.44 71.1994 105.533 71.6007 105.72C72.0114 105.897 72.3381 106.121 72.5807 106.392C72.8234 106.663 73.0054 106.933 73.1267 107.204C73.2481 107.475 73.3227 107.703 73.3507 107.89C73.3881 108.077 73.4067 108.17 73.4067 108.17H71.8947C71.8947 108.17 71.8714 108.1 71.8247 107.96C71.7874 107.82 71.7081 107.657 71.5867 107.47C71.4654 107.283 71.2834 107.12 71.0407 106.98C70.8074 106.84 70.4901 106.77 70.0887 106.77C69.6127 106.77 69.2161 106.891 68.8987 107.134C68.5814 107.367 68.3387 107.675 68.1707 108.058C68.0121 108.441 67.9327 108.851 67.9327 109.29C67.9327 109.729 68.0121 110.139 68.1707 110.522C68.3387 110.905 68.5814 111.217 68.8987 111.46C69.2161 111.693 69.6127 111.81 70.0887 111.81C70.4901 111.81 70.8074 111.74 71.0407 111.6C71.2834 111.46 71.4654 111.297 71.5867 111.11C71.7081 110.923 71.7874 110.76 71.8247 110.62C71.8714 110.48 71.8947 110.41 71.8947 110.41H73.4067C73.4067 110.41 73.3881 110.503 73.3507 110.69C73.3227 110.877 73.2481 111.105 73.1267 111.376C73.0054 111.647 72.8234 111.917 72.5807 112.188C72.3381 112.459 72.0114 112.687 71.6007 112.874C71.1994 113.051 70.6907 113.14 70.0747 113.14ZM78.3097 105.44C78.7764 105.44 79.1637 105.515 79.4717 105.664C79.789 105.813 80.041 105.986 80.2277 106.182C80.4144 106.378 80.5497 106.546 80.6337 106.686H80.7177V105.58H82.3137V113H80.7177V111.894H80.6337C80.5497 112.034 80.4144 112.202 80.2277 112.398C80.041 112.594 79.789 112.767 79.4717 112.916C79.1637 113.065 78.7764 113.14 78.3097 113.14C77.7497 113.14 77.2597 113.033 76.8397 112.818C76.429 112.594 76.0837 112.3 75.8037 111.936C75.5237 111.563 75.3137 111.147 75.1737 110.69C75.043 110.233 74.9777 109.766 74.9777 109.29C74.9777 108.814 75.043 108.347 75.1737 107.89C75.3137 107.433 75.5237 107.022 75.8037 106.658C76.0837 106.285 76.429 105.991 76.8397 105.776C77.2597 105.552 77.7497 105.44 78.3097 105.44ZM78.6597 106.77C78.2024 106.77 77.8197 106.896 77.5117 107.148C77.2037 107.391 76.9704 107.703 76.8117 108.086C76.6624 108.469 76.5877 108.87 76.5877 109.29C76.5877 109.71 76.6624 110.111 76.8117 110.494C76.9704 110.877 77.2037 111.194 77.5117 111.446C77.8197 111.689 78.2024 111.81 78.6597 111.81C79.117 111.81 79.495 111.689 79.7937 111.446C80.1017 111.194 80.3304 110.877 80.4797 110.494C80.6384 110.111 80.7177 109.71 80.7177 109.29C80.7177 108.87 80.6384 108.469 80.4797 108.086C80.3304 107.703 80.1017 107.391 79.7937 107.148C79.495 106.896 79.117 106.77 78.6597 106.77ZM84.1818 113V105.58H85.7778V106.658H85.8618C85.9271 106.527 86.0391 106.369 86.1978 106.182C86.3565 105.986 86.5758 105.813 86.8558 105.664C87.1451 105.515 87.5091 105.44 87.9478 105.44C88.4985 105.44 88.9605 105.566 89.3338 105.818C89.7071 106.07 89.9871 106.406 90.1738 106.826C90.3698 107.246 90.4678 107.708 90.4678 108.212V113H88.8718V108.38C88.8718 107.932 88.7458 107.554 88.4938 107.246C88.2511 106.938 87.8871 106.784 87.4018 106.784C87.0191 106.784 86.7065 106.882 86.4638 107.078C86.2305 107.265 86.0578 107.512 85.9458 107.82C85.8338 108.119 85.7778 108.441 85.7778 108.786V113H84.1818ZM95.8872 113.14C95.2619 113.14 94.7159 113.033 94.2492 112.818C93.7826 112.594 93.3952 112.3 93.0872 111.936C92.7792 111.563 92.5459 111.147 92.3872 110.69C92.2379 110.233 92.1632 109.766 92.1632 109.29C92.1632 108.814 92.2379 108.347 92.3872 107.89C92.5459 107.433 92.7792 107.022 93.0872 106.658C93.3952 106.285 93.7826 105.991 94.2492 105.776C94.7159 105.552 95.2619 105.44 95.8872 105.44C96.5032 105.44 97.0119 105.533 97.4132 105.72C97.8239 105.897 98.1506 106.121 98.3932 106.392C98.6359 106.663 98.8179 106.933 98.9392 107.204C99.0606 107.475 99.1352 107.703 99.1632 107.89C99.2006 108.077 99.2192 108.17 99.2192 108.17H97.7072C97.7072 108.17 97.6839 108.1 97.6372 107.96C97.5999 107.82 97.5206 107.657 97.3992 107.47C97.2779 107.283 97.0959 107.12 96.8532 106.98C96.6199 106.84 96.3026 106.77 95.9012 106.77C95.4252 106.77 95.0286 106.891 94.7112 107.134C94.3939 107.367 94.1512 107.675 93.9832 108.058C93.8246 108.441 93.7452 108.851 93.7452 109.29C93.7452 109.729 93.8246 110.139 93.9832 110.522C94.1512 110.905 94.3939 111.217 94.7112 111.46C95.0286 111.693 95.4252 111.81 95.9012 111.81C96.3026 111.81 96.6199 111.74 96.8532 111.6C97.0959 111.46 97.2779 111.297 97.3992 111.11C97.5206 110.923 97.5999 110.76 97.6372 110.62C97.6839 110.48 97.7072 110.41 97.7072 110.41H99.2192C99.2192 110.41 99.2006 110.503 99.1632 110.69C99.1352 110.877 99.0606 111.105 98.9392 111.376C98.8179 111.647 98.6359 111.917 98.3932 112.188C98.1506 112.459 97.8239 112.687 97.4132 112.874C97.0119 113.051 96.5032 113.14 95.8872 113.14ZM100.939 115.73C100.706 115.73 100.514 115.721 100.365 115.702C100.216 115.683 100.141 115.674 100.141 115.674V114.344C100.141 114.344 100.216 114.349 100.365 114.358C100.514 114.377 100.678 114.386 100.855 114.386C101.368 114.386 101.788 114.288 102.115 114.092C102.451 113.905 102.736 113.574 102.969 113.098L100.141 105.58H101.765L103.767 111.138L105.769 105.58H107.421L104.621 112.916C104.248 113.877 103.772 114.587 103.193 115.044C102.614 115.501 101.863 115.73 100.939 115.73Z" fill="#3C3D3D"/>
<path fill-rule="evenodd" clip-rule="evenodd" d="M54.3537 22.6615V25.1791L51.2702 25.4238C50.2109 25.5069 49.2107 25.9335 48.4297 26.6354C47.6486 27.3374 47.1318 28.2742 46.9617 29.296C46.8871 29.7534 46.8161 30.2109 46.7542 30.6701C46.7395 30.7811 46.7613 30.8938 46.8166 30.9919C46.8719 31.0901 46.9578 31.1686 47.0618 31.2161L47.202 31.28C57.084 35.8365 68.9173 35.8365 78.7975 31.28L78.9376 31.2161C79.0414 31.1683 79.1268 31.0897 79.1818 30.9916C79.2367 30.8935 79.2583 30.7809 79.2434 30.6701C79.1818 30.2111 79.1132 29.753 79.0378 29.296C78.8677 28.2742 78.3509 27.3374 77.5698 26.6354C76.7887 25.9335 75.7886 25.5069 74.7293 25.4238L71.6458 25.1809V22.6633C71.646 21.9201 71.3723 21.2016 70.8746 20.6384C70.3769 20.0752 69.6882 19.7047 68.9337 19.5943L66.713 19.2698C64.2513 18.9101 61.7482 18.9101 59.2865 19.2698L57.0658 19.5943C56.3116 19.7046 55.6231 20.0749 55.1255 20.6377C54.6278 21.2006 54.3539 21.9187 54.3537 22.6615ZM66.3071 21.8991C64.1145 21.5788 61.885 21.5788 59.6924 21.8991L57.4717 22.2236C57.364 22.2393 57.2656 22.2921 57.1944 22.3725C57.1233 22.4528 57.0841 22.5554 57.084 22.6615V24.993C61.0246 24.7731 64.9749 24.7731 68.9155 24.993V22.6615C68.9154 22.5554 68.8762 22.4528 68.805 22.3725C68.7339 22.2921 68.6355 22.2393 68.5278 22.2236L66.3071 21.8991Z" fill="#01A3E0"/>
<path d="M79.5966 34.3791C79.593 34.3218 79.5751 34.2662 79.5446 34.2171C79.514 34.168 79.4717 34.1268 79.4212 34.0972C79.3707 34.0675 79.3135 34.0503 79.2547 34.0469C79.1958 34.0435 79.137 34.0541 79.0833 34.0777C68.9428 38.4517 57.0567 38.4517 46.9162 34.0777C46.8625 34.0541 46.8037 34.0435 46.7448 34.0469C46.6859 34.0503 46.6288 34.0675 46.5783 34.0972C46.5278 34.1268 46.4855 34.168 46.4549 34.2171C46.4244 34.2662 46.4065 34.3218 46.4029 34.3791C46.2169 37.7735 46.4042 41.1775 46.9617 44.533C47.1314 45.5551 47.6481 46.4923 48.4292 47.1946C49.2103 47.8969 50.2106 48.3238 51.2702 48.4069L54.6777 48.6729C60.2166 49.109 65.781 49.109 71.3218 48.6729L74.7293 48.4069C75.7889 48.3238 76.7892 47.8969 77.5703 47.1946C78.3514 46.4923 78.8681 45.5551 79.0378 44.533C79.5947 41.1732 79.7841 37.7691 79.5966 34.3809" fill="#01A3E0"/>
</svg>
